<?xml version="1.0" standalone="no"?><!DOCTYPE svg PUBLIC "-//W3C//DTD SVG 1.1//EN" "http://www.w3.org/Graphics/SVG/1.1/DTD/svg11.dtd"><svg t="1559378084738" class="icon" style="" viewBox="0 0 1024 1024" version="1.1" xmlns="http://www.w3.org/2000/svg" p-id="11394" xmlns:xlink="http://www.w3.org/1999/xlink" width="64" height="64"><defs><style type="text/css"></style></defs><path d="M734.11 96.73C663.52 33.57 568.57 3.6 473.67 14 327.41 30.37 205 147.44 182.67 292.42 161.43 430 226.41 565 345.26 633.71v267.17A111.23 111.23 0 0 0 456.38 1012h111.13a111.23 111.23 0 0 0 111.12-111.12V633.71a333.09 333.09 0 0 0 55.48-537z m-95.93 495.74a27.84 27.84 0 0 0-15.11 24.74v283.67a55.63 55.63 0 0 1-55.56 55.56H456.38a55.63 55.63 0 0 1-55.56-55.56V617.21a27.78 27.78 0 0 0-15.14-24.74C278.63 537.7 219.1 420.52 237.58 300.88c18.61-120.62 120.48-218 242.27-231.6a291.32 291.32 0 0 1 32.47-1.82c68.5 0 133.15 24.53 184.75 70.67a278.26 278.26 0 0 1 92.67 207.13c0.01 104.64-58.07 199.38-151.56 247.21z" p-id="11395" fill="#1296db"></path><path d="M567.51 845.32H456.38a27.78 27.78 0 0 0 0 55.56h111.13a27.78 27.78 0 0 0 0-55.56zM631.21 276.79L511.95 396.05 392.68 276.79a27.78 27.78 0 0 0-39.28 39.28l130.77 130.77V762a27.78 27.78 0 1 0 55.56 0V446.84l130.76-130.77a27.78 27.78 0 0 0-39.28-39.28z" p-id="11396" fill="#1296db"></path></svg>