<?xml version="1.0" standalone="no"?><!DOCTYPE svg PUBLIC "-//W3C//DTD SVG 1.1//EN" "http://www.w3.org/Graphics/SVG/1.1/DTD/svg11.dtd"><svg t="1559377979791" class="icon" style="" viewBox="0 0 1024 1024" version="1.1" xmlns="http://www.w3.org/2000/svg" p-id="10808" xmlns:xlink="http://www.w3.org/1999/xlink" width="64" height="64"><defs><style type="text/css"></style></defs><path d="M17.066667 1024c-10.24 0-17.066667-6.826667-17.066667-17.066667 0-85.333333 13.653333-174.08 160.426667-238.933333 10.24-3.413333 17.066667 0 23.893333 10.24 3.413333 10.24 0 17.066667-10.24 23.893333C34.133333 860.16 34.133333 942.08 34.133333 1006.933333c0 10.24-6.826667 17.066667-17.066666 17.066667z" fill="#1296db" p-id="10809"></path><path d="M17.066667 1024c-10.24 0-17.066667-6.826667-17.066667-17.066667s6.826667-17.066667 17.066667-17.066666c71.68 0 139.946667-10.24 197.973333-146.773334 3.413333-10.24 13.653333-13.653333 23.893333-10.24 10.24 3.413333 13.653333 13.653333 10.24 23.893334-68.266667 153.6-157.013333 167.253333-232.106666 167.253333zM221.866667 580.266667h-170.666667c-6.826667 0-13.653333-3.413333-13.653333-10.24-3.413333-6.826667-3.413333-13.653333 0-17.066667l136.533333-170.666667c3.413333-3.413333 6.826667-6.826667 13.653333-6.826666h170.666667c10.24 0 17.066667 6.826667 17.066667 17.066666s-6.826667 17.066667-17.066667 17.066667H194.56l-109.226667 136.533333h136.533334c10.24 0 17.066667 6.826667 17.066666 17.066667s-6.826667 17.066667-17.066666 17.066667z" fill="#1296db" p-id="10810"></path><path d="M402.773333 846.506667c-3.413333 0-6.826667 0-10.24-3.413334-3.413333-3.413333-64.853333-40.96-109.226666-88.746666l-20.48-20.48c-44.373333-44.373333-85.333333-105.813333-88.746667-109.226667-3.413333-6.826667-3.413333-13.653333 0-20.48C587.093333 44.373333 788.48 0 1006.933333 0c10.24 0 17.066667 6.826667 17.066667 17.066667 0 211.626667-44.373333 406.186667-614.4 826.026666 0 0-3.413333 3.413333-6.826667 3.413334zM208.213333 614.4c13.653333 20.48 44.373333 61.44 75.093334 95.573333l23.893333 20.48c30.72 30.72 75.093333 64.853333 95.573333 75.093334C931.84 413.013333 986.453333 228.693333 989.866667 34.133333c-201.386667 3.413333-392.533333 58.026667-781.653334 580.266667z" fill="#1296db" p-id="10811"></path><path d="M273.066667 887.466667h-6.826667s-37.546667-13.653333-71.68-47.786667l-20.48-20.48c-34.133333-34.133333-44.373333-68.266667-47.786667-71.68-3.413333-6.826667 0-10.24 3.413334-17.066667l64.853333-85.333333c6.826667-6.826667 17.066667-10.24 23.893333-3.413333 6.826667 6.826667 10.24 17.066667 3.413334 23.893333l-58.026667 78.506667c6.826667 10.24 17.066667 30.72 34.133333 51.2l20.48 20.48c17.066667 17.066667 37.546667 30.72 51.2 34.133333l78.506667-58.026667c6.826667-6.826667 17.066667-3.413333 23.893333 3.413334 6.826667 6.826667 3.413333 17.066667-3.413333 23.893333l-85.333333 64.853333c-3.413333 3.413333-6.826667 3.413333-10.24 3.413334zM460.8 955.733333c-3.413333 0-6.826667 0-6.826667-3.413333-6.826667-3.413333-10.24-10.24-10.24-13.653333V785.066667c0-10.24 6.826667-17.066667 17.066667-17.066667s17.066667 6.826667 17.066667 17.066667v122.88l136.533333-81.92V648.533333c0-10.24 6.826667-17.066667 17.066667-17.066666s17.066667 6.826667 17.066666 17.066666v187.733334c0 6.826667-3.413333 10.24-6.826666 13.653333l-170.666667 102.4c-3.413333 3.413333-6.826667 3.413333-10.24 3.413333zM699.733333 443.733333c-64.853333 0-119.466667-54.613333-119.466666-119.466666S634.88 204.8 699.733333 204.8 819.2 259.413333 819.2 324.266667 764.586667 443.733333 699.733333 443.733333z m0-204.8C651.946667 238.933333 614.4 276.48 614.4 324.266667s37.546667 85.333333 85.333333 85.333333S785.066667 372.053333 785.066667 324.266667 747.52 238.933333 699.733333 238.933333z" fill="#1296db" p-id="10812"></path></svg>