<?xml version="1.0" standalone="no"?><!DOCTYPE svg PUBLIC "-//W3C//DTD SVG 1.1//EN" "http://www.w3.org/Graphics/SVG/1.1/DTD/svg11.dtd"><svg t="1559378263885" class="icon" style="" viewBox="0 0 1024 1024" version="1.1" xmlns="http://www.w3.org/2000/svg" p-id="14377" xmlns:xlink="http://www.w3.org/1999/xlink" width="64" height="64"><defs><style type="text/css"></style></defs><path d="M894.4 721.6a136 136 0 0 0-81.6-38.4 46.4 46.4 0 0 1-28.8-14.4 62.4 62.4 0 0 1-11.2-38.4 9.6 9.6 0 0 1 3.2-6.4 102.4 102.4 0 0 0 35.2-54.4 89.6 89.6 0 0 1 14.4-28.8h1.6a86.4 86.4 0 0 0 20.8-32 35.2 35.2 0 0 0-4.8-38.4 14.4 14.4 0 0 1-1.6-9.6 225.6 225.6 0 0 0 9.6-41.6 129.6 129.6 0 0 0 0-36.8 136 136 0 0 0-28.8-59.2c-4.8-6.4-19.2-22.4-36.8-19.2h-11.2l-8-8h-1.6a44.8 44.8 0 0 0-30.4-16 187.2 187.2 0 0 0-40-1.6h-25.6a166.4 166.4 0 0 0-24-36.8c-14.4-17.6-28.8-24-41.6-22.4a30.4 30.4 0 0 1-16-1.6 32 32 0 0 1-12.8-9.6h-1.6a52.8 52.8 0 0 0-35.2-17.6 236.8 236.8 0 0 0-48-1.6 155.2 155.2 0 0 0-86.4 24 123.2 123.2 0 0 0-48 64v3.2h-11.2a190.4 190.4 0 0 0-40 1.6 44.8 44.8 0 0 0-30.4 16H272l-8 8h-11.2c-17.6-3.2-32 14.4-36.8 19.2a136 136 0 0 0-28.8 59.2 131.2 131.2 0 0 0 0 36.8 227.2 227.2 0 0 0 9.6 41.6 14.4 14.4 0 0 1-1.6 9.6 16 16 0 0 0-3.2 14.4 41.6 41.6 0 0 0 3.2 24 84.8 84.8 0 0 0 19.2 30.4 16 16 0 0 0 9.6 6.4l6.4 16a102.4 102.4 0 0 0 35.2 54.4 9.6 9.6 0 0 1 3.2 6.4 62.4 62.4 0 0 1-12.8 38.4 46.4 46.4 0 0 1-28.8 14.4A136 136 0 0 0 144 712 147.2 147.2 0 0 0 112 800a16 16 0 0 0 16 16h787.2a16 16 0 0 0 16-16 120 120 0 0 0-36.8-78.4zM147.2 784a110.4 110.4 0 0 1 20.8-49.6 105.6 105.6 0 0 1 62.4-28.8 78.4 78.4 0 0 0 48-24 92.8 92.8 0 0 0 20.8-64 40 40 0 0 0-17.6-30.4 80 80 0 0 1-22.4-38.4 105.6 105.6 0 0 0-24-41.6l-9.6-4.8-3.2-6.4v-4.8a16 16 0 0 0 4.8-12.8 44.8 44.8 0 0 0 1.6-27.2 195.2 195.2 0 0 1-8-35.2 99.2 99.2 0 0 1 0-28.8 105.6 105.6 0 0 1 20.8-43.2l8-8a52.8 52.8 0 0 0 28.8-4.8 56 56 0 0 0 20.8-17.6h1.6l11.2-3.2h36.8a208 208 0 0 0-3.2 36.8 169.6 169.6 0 0 0 11.2 60.8h1.6a8 8 0 0 1 0 6.4 20.8 20.8 0 0 1-3.2 8 40 40 0 0 0-3.2 40 107.2 107.2 0 0 0 24 35.2l6.4 3.2a147.2 147.2 0 0 1 14.4 30.4 120 120 0 0 0 41.6 60.8 8 8 0 0 1 4.8 8 57.6 57.6 0 0 1-16 44.8 59.2 59.2 0 0 1-36.8 16 166.4 166.4 0 0 0-96 43.2 107.2 107.2 0 0 0-33.6 72 16 16 0 0 0-3.2 9.6z m166.4-57.6a134.4 134.4 0 0 1 76.8-35.2 91.2 91.2 0 0 0 57.6-25.6 89.6 89.6 0 0 0 24-67.2 40 40 0 0 0-20.8-35.2 99.2 99.2 0 0 1-28.8-46.4 126.4 126.4 0 0 0-27.2-46.4l-6.4-4.8a72 72 0 0 1-11.2-17.6c-1.6-6.4-1.6-6.4 1.6-11.2a49.6 49.6 0 0 0 8-19.2 40 40 0 0 0-3.2-27.2 142.4 142.4 0 0 1-8-48 182.4 182.4 0 0 1 9.6-59.2H384a91.2 91.2 0 0 1 35.2-48 124.8 124.8 0 0 1 70.4-17.6 214.4 214.4 0 0 1 41.6 1.6l14.4 4.8h3.2a65.6 65.6 0 0 0 24 20.8 60.8 60.8 0 0 0 33.6 4.8s4.8 1.6 12.8 11.2a128 128 0 0 1 27.2 54.4 118.4 118.4 0 0 1 0 35.2 232 232 0 0 1-9.6 43.2 35.2 35.2 0 0 0 6.4 36.8h1.6a25.6 25.6 0 0 1 0 17.6 67.2 67.2 0 0 1-16 22.4h-1.6a121.6 121.6 0 0 0-28.8 48h-1.6c-6.4 14.4-14.4 38.4-28.8 46.4a43.2 43.2 0 0 0-19.2 33.6 102.4 102.4 0 0 0 27.2 75.2 96 96 0 0 0 57.6 27.2 139.2 139.2 0 0 1 80 35.2 80 80 0 0 1 24 48h-448a76.8 76.8 0 0 1 24-57.6zM769.6 784a110.4 110.4 0 0 0-33.6-72 171.2 171.2 0 0 0-97.6-44.8 62.4 62.4 0 0 1-38.4-17.6 73.6 73.6 0 0 1-16-46.4c0-8 3.2-9.6 4.8-9.6s35.2-43.2 41.6-62.4a104 104 0 0 1 19.2-35.2h1.6a99.2 99.2 0 0 0 24-35.2 62.4 62.4 0 0 0-1.6-46.4 16 16 0 0 0-6.4-9.6 260.8 260.8 0 0 0 11.2-49.6 148.8 148.8 0 0 0 0-43.2v-3.2h49.6l9.6 3.2h1.6a56 56 0 0 0 20.8 17.6 52.8 52.8 0 0 0 28.8 4.8l8 8a105.6 105.6 0 0 1 20.8 44.8 99.2 99.2 0 0 1 0 28.8 195.2 195.2 0 0 1-8 35.2 44.8 44.8 0 0 0 8 41.6 19.2 19.2 0 0 1-1.6 6.4 56 56 0 0 1-11.2 17.6h-1.6a107.2 107.2 0 0 0-24 41.6 80 80 0 0 1-22.4 38.4 40 40 0 0 0-17.6 30.4 92.8 92.8 0 0 0 20.8 64 78.4 78.4 0 0 0 49.6 24 105.6 105.6 0 0 1 60.8 28.8A100.8 100.8 0 0 1 896 784z" fill="#1296db" p-id="14378"></path></svg>
